<svg height="256" viewBox="0 0 60 60" width="256" xmlns="http://www.w3.org/2000/svg"><g id="Page-1" fill="none" fill-rule="evenodd"><g id="077---new-chat" fill="rgb(0,0,0)" fill-rule="nonzero" transform="translate(0 -1)"><path id="Shape" d="m60 12c0-6.07513225-4.9248678-11-11-11s-11 4.92486775-11 11c0 .04.006.078.006.118-3.431-.149-5.3-.933-6.111-2.565-.1987834-.39869392-.6373345-.61780756-1.0755122-.53735906s-.7702935.44105494-.8144878.88435906c-.037.369-.713 7.711 3 11.394v2.833c-1.9312579.4952247-3.2029633 2.3370426-2.9817418 4.3184728.2212216 1.9814301 1.8678183 3.4974271 3.8607418 3.5545272 1.0962882 2.7341264 3.2200137 4.9300068 5.916 6.117.6741416 1.7139446.2018815 3.666566-1.181 4.883h-2.619c-1.4057567.0000774-2.7862274.3738398-4 1.083v-1.083c-.0049599-4.4162219-3.5837781-7.9950401-8-8h-2.619c-1.3827118-1.2161092-1.8549786-3.1683587-1.181-4.882 2.6958655-1.1876747 4.8194733-3.3837924 5.916-6.118 1.9328738-.0568229 3.5483473-1.4881956 3.8374888-3.4001651.2891414-1.9119694-.8308486-3.7570181-2.6604888-4.3828349.681-2.493 1.707-8.383-2.778-11.074-2.359-1.414-5.954-1.258-9.759-1.1-4.625.2-9.411.406-10.861-2.494-.1992933-.3989832-.63870665-.61776482-1.07719716-.53633087s-.77005137.4433965-.81280284.88733087c-.037.37-.716 7.717 3 11.4v2.827c-1.93125789.4952247-3.20296332 2.3370426-2.98174178 4.3184728.22122153 1.9814301 1.86781826 3.4974271 3.86074178 3.5545272 1.09628823 2.7341264 3.22001371 4.9300068 5.916 6.117.6741416 1.7139446.2018815 3.666566-1.181 4.883h-2.619c-4.41622192.0049599-7.99504012 3.5837781-8 8v9c0 .5522847.44771525 1 1 1h27v7c0 .5522847.4477153 1 1 1h30c.5522847 0 1-.4477153 1-1v-9c-.0049599-4.4162219-3.5837781-7.9950401-8-8h-2.619c-1.3827118-1.2161092-1.8549786-3.1683587-1.181-4.882 2.6958655-1.1876747 4.8194733-3.3837924 5.916-6.118 1.9337865-.0559903 3.550353-1.4878994 3.8393507-3.4007887.2889977-1.9128894-.8324116-3.7584495-2.6633507-4.3832113.3194357-1.1871883.5111894-2.4050924.572-3.633 2.6130177-2.0824821 4.1353683-5.2416541 4.136-8.583zm-11-9c3.6401602 0 6.9218868 2.1927796 8.3149158 5.55584911 1.393029 3.36306949.6230272 7.23412999-1.9509548 9.80811189-2.5739819 2.573982-6.4450424 3.3439838-9.8081119 1.9509548s-5.5558491-4.6747556-5.5558491-8.3149158c.0055111-4.96827817 4.0317218-8.99448887 9-9zm-41.491 19.626c-.13526164-.408984-.5172295-.6853869-.948-.686-.07371674-.000085-.14719898.0083034-.219.025-.11243237.0237866-.22708016.0355195-.342.035-1.1045695 0-2-.8954305-2-2s.8954305-2 2-2c.55228475 0 1-.4477153 1-1v-2.318c.22339594.1000788.45168436.1888576.684.266.52467051.174522 1.09147799-.1093295 1.26599997-.634s-.10932948-1.091478-.63399997-1.266c-.59035345-.1966145-1.13707344-.5056302-1.61-.91-.0306924-.0316016-.06416008-.0603838-.1-.086-2.006-1.805-2.538-5.152-2.643-7.461 2.623 1.808 6.8 1.63 10.879 1.454 3.345-.143 6.8-.294 8.643.812 4.222 2.534 1.605 9.72 1.578 9.793-.1147341.3070775-.0716779.6508892.1152372.9201906.1869151.2693013.4939512.4298915.8217628.4298094 1.1045695 0 2 .8954305 2 2s-.8954305 2-2 2c-.1149198.0005195-.2295676-.0112134-.342-.035-.500997-.1118544-1.0053152.1737964-1.167.661-1.1579689 3.7346013-4.5816101 6.3046506-8.491 6.374-3.9093899-.0693494-7.33303111-2.6393987-8.491-6.374zm6.469 8.17c1.3342795.2719944 2.7097205.2719944 4.044 0-.3767663 2.0811175.356675 4.2083247 1.936 5.615-.1997614 2.0362778-1.9119472 3.5887153-3.958 3.5887153s-3.7582386-1.5524375-3.958-3.5887153c1.5779792-1.4058655 2.311292-3.5311846 1.936-5.611zm13.022 20.204v-6c0-.5522847-.4477153-1-1-1s-1 .4477153-1 1v6h-18v-6c0-.5522847-.44771525-1-1-1s-1 .4477153-1 1v6h-3v-8c.00330738-3.3123376 2.68766243-5.9966926 6-6h2.083c.4856527 2.8893814 2.9870881 5.0054594 5.917 5.0054594s5.4313473-2.116078 5.917-5.0054594h2.083c3.3123376.0033074 5.9966926 2.6876624 6 6v2.726c-1.2883025 1.4548038-1.9997008 3.3307612-2 5.274zm31 0v8h-3v-6c0-.5522847-.4477153-1-1-1s-1 .4477153-1 1v6h-18v-6c0-.5522847-.4477153-1-1-1s-1 .4477153-1 1v6h-3.0000025l.0000025-8c-.0014242-1.5622618.6087813-3.0630082 1.7-4.181l.005-.006c1.1275115-1.1603909 2.6770423-1.8144769 4.295-1.813h2.083c.4856527 2.8893814 2.9870881 5.0054594 5.917 5.0054594s5.4313473-2.116078 5.917-5.0054594h2.083c3.3123376.0033074 5.9966926 2.6876624 6 6zm-10.042-6.589c-.1997614 2.0362778-1.9119472 3.5887153-3.958 3.5887153s-3.7582386-1.5524375-3.958-3.5887153c1.5779792-1.4058655 2.311292-3.5311846 1.936-5.611 1.3342795.2719944 2.7097205.2719944 4.044 0-.375292 2.0798154.3580208 4.2051345 1.936 5.611zm5.221-18.842c.1864966.2695316.4932377.4305614.821.431 1.1045695 0 2 .8954305 2 2s-.8954305 2-2 2c-.1149198.0005195-.2295676-.0112134-.342-.035-.500997-.1118544-1.0053152.1737964-1.167.661-1.0984742 3.7759651-4.5584998 6.3728648-8.491 6.3728648s-7.3925258-2.5968997-8.491-6.3728648c-.1616848-.4872036-.666003-.7728544-1.167-.661-.1124324.0237866-.2270802.0355195-.342.035-1.1045695 0-2-.8954305-2-2s.8954305-2 2-2c.5522847 0 1-.4477153 1-1v-2.323c.2230583.1023396.4513778.1927995.684.271.5246705.174522 1.091478-.1093295 1.266-.634.1745219-.5246705-.1093295-1.091478-.634-1.266-3.45-1.151-4.223-5.607-4.353-8.469 1.8965067 1.0924532 4.0617473 1.6302117 6.249 1.552.6513136 3.3352262 2.81194 6.180114 5.8499957 7.7026648 3.0380556 1.5225509 6.6102955 1.5507444 9.6720043.0763352-.1396604.9299212-.3642667 1.8450832-.671 2.734-.1162103.3085998-.0728135.6546518.116.925z"/><path id="Shape" d="m47 9c.7008098-.02988775 1.3852545-.22119003 2-.559v9.559c0 .5522847.4477153 1 1 1s1-.4477153 1-1v-12c.0052636-.46823782-.3151034-.87742618-.770926-.98466446-.4558227-.10723828-.9250221.11619422-1.129074.53766446-.3944361.82454879-1.1987178 1.37611066-2.11 1.447-.3572656.00178633-.6864396.19403589-.8635254.50433013s-.1751798.69149208.005 1c.1801798.30850791.5112598.4974562.8685254.49566987z"/></g></g></svg>
